<?xml version="1.0" standalone="no"?>
<!DOCTYPE svg PUBLIC "-//W3C//DTD SVG 20010904//EN"
 "http://www.w3.org/TR/2001/REC-SVG-20010904/DTD/svg10.dtd">
<svg version="1.0" xmlns="http://www.w3.org/2000/svg"
 width="128.000000pt" height="128.000000pt" viewBox="0 0 128.000000 128.000000"
 preserveAspectRatio="xMidYMid meet">
<metadata>
Created by potrace 1.14, written by Peter Selinger 2001-2017
</metadata>
<g transform="translate(0.000000,128.000000) scale(0.100000,-0.100000)"
fill="#000000" stroke="none">
<path d="M520 1153 c-63 -36 -175 -98 -249 -138 l-134 -73 2 -214 c1 -117 4
-247 7 -288 l6 -75 57 -35 c31 -19 74 -44 96 -56 22 -11 65 -36 95 -54 30 -19
60 -35 67 -36 6 -1 27 -14 46 -28 19 -14 37 -26 41 -26 3 0 24 -12 46 -26 38
-26 39 -26 69 -8 17 10 31 21 31 25 0 6 175 110 368 218 l62 35 -2 284 -3 284
-65 35 c-134 74 -166 91 -210 114 -25 13 -49 29 -55 36 -5 6 -44 29 -85 51
l-75 39 -115 -64z"/>
</g>
</svg>
